<svg id="svg" xmlns="http://www.w3.org/2000/svg" xmlns:xlink="http://www.w3.org/1999/xlink" 
width="1700" height="400" viewBox="0, 0, 1700,400">
<g id="svgg"><path id="path0" d="M188.149 28.407 C 131.687 33.418,77.419 71.860,69.087 112.747 C 61.442 150.260,68.187 191.781,85.694 214.983 C 98.661 232.169,110.505 239.174,137.912 245.866 C 163.019 251.997,176.036 258.528,189.460 271.730 C 220.564 302.321,203.811 349.834,154.337 371.341 C 149.776 373.323,149.143 373.792,150.604 374.103 C 182.272 380.850,210.214 379.233,227.636 369.644 C 262.028 350.717,271.124 318.932,256.102 270.182 C 245.705 236.444,214.972 210.962,180.254 207.293 C 140.160 203.057,119.470 186.600,115.613 155.878 C 111.350 121.929,138.651 80.525,178.945 59.829 C 212.505 42.593,249.396 41.476,291.191 56.433 C 298.505 59.050,297.828 58.264,287.839 52.538 C 252.993 32.565,223.026 25.311,188.149 28.407 M222.545 69.049 C 185.004 74.797,153.519 97.789,142.316 127.636 C 131.705 155.904,141.312 177.632,166.909 183.257 C 176.379 185.338,176.324 185.355,173.535 181.210 C 150.963 147.669,191.702 96.323,232.000 107.524 C 279.187 120.640,286.534 179.173,244.174 204.507 L 239.257 207.448 247.532 215.542 C 264.073 231.720,273.529 248.942,280.180 275.003 L 283.119 286.521 286.381 281.624 C 300.884 259.849,301.523 245.129,289.942 199.636 C 279.683 159.333,288.808 116.631,307.619 116.915 C 315.553 117.035,317.338 123.341,313.021 136.000 C 306.345 155.576,306.101 170.164,312.049 194.182 C 323.231 239.335,323.426 255.008,313.112 279.626 C 308.243 291.248,296.698 305.719,287.533 311.690 L 283.793 314.127 283.690 321.957 C 283.468 338.769,278.467 350.909,266.770 363.025 C 261.118 368.879,261.073 369.001,265.153 367.383 C 348.905 334.165,390.316 247.754,363.659 161.833 C 344.910 101.404,281.884 59.964,222.545 69.049 M214.049 127.654 C 182.556 134.392,179.816 177.008,210.281 186.262 C 235.998 194.073,258.870 167.695,247.075 143.828 C 241.056 131.649,227.167 124.847,214.049 127.654 M41.228 140.182 C 14.521 197.253,21.258 264.263,57.971 306.709 L 60.000 309.055 73.091 308.528 C 115.336 306.825,143.883 312.313,168.306 326.833 C 175.144 330.898,174.757 331.079,179.876 321.455 C 186.042 309.861,185.887 303.499,179.224 294.635 C 170.068 282.454,154.880 273.942,132.364 268.370 C 74.924 254.155,44.241 214.163,44.057 153.273 C 44.025 142.973,43.970 134.546,43.933 134.546 C 43.896 134.546,42.679 137.082,41.228 140.182 M77.873 332.072 C 82.823 337.378,102.790 351.180,113.575 356.750 L 120.017 360.077 130.008 357.095 C 139.298 354.322,154.909 347.505,154.909 346.221 C 154.909 345.327,144.377 340.799,135.636 337.936 C 120.222 332.887,103.031 330.255,85.146 330.206 L 76.110 330.182 77.873 332.072 " stroke="none" fill="#f9f9f9" fill-rule="evenodd"></path>
<text x="500" y="295" fill="#f9f9f9" font-family="Consolas, sans-serif" font-size="250" font-weight="bold" letter-spacing="10">MSERVICE</text>
</g></svg>