<svg width="46" height="46" fill="currentColor" viewBox="0 0 24 24" xmlns="http://www.w3.org/2000/svg">
  <path fill-rule="evenodd" d="M4.305 18.494a10.058 10.058 0 0 1-2.644-6.798c0-5.632 4.648-10.198 10.382-10.198s10.382 4.566 10.382 10.198c0 3.982-2.325 7.43-5.713 9.109a14.992 14.992 0 0 1-6.95 1.693c-3.075 0-5.933-.92-8.303-2.493 0 0 1.589-.174 2.845-1.511Zm12.615-1.751a6.878 6.878 0 0 0-4.48-11.73c-.05-1.224.609-2.05.612-2.054a9.855 9.855 0 0 0-5.114 2.72 9.86 9.86 0 0 0-2.377 3.82c.069-.182.145-.362.23-.54-.098.25-.186.504-.266.764a6.878 6.878 0 0 0 11.394 7.02Z" clip-rule="evenodd"></path>
  <path fill-rule="evenodd" d="M8.565 11.172v1.424a1.029 1.029 0 1 0 2.057 0v-1.424a1.029 1.029 0 1 0-2.057 0Z" clip-rule="evenodd"></path>
  <path fill-rule="evenodd" d="M13.656 11.172v1.424a1.029 1.029 0 1 0 2.058 0v-1.424a1.029 1.029 0 0 0-2.058 0Z" clip-rule="evenodd"></path>
</svg>